# xmcd
#
# Track frame offsets: 
#        150
#        18779
#        33213
#        53032
#        72801
#        98023
#        123805
#        139137
#        160526
#        190398
#        233478
#        260797
#        302851
#        334565
#
# Disc length: 4726 seconds
#
# Revision: 0
# Processed by: cddbd v1.5.2PL0 Copyright (c) Steve Scherf et al.
# Submitted via: ExactAudioCopy v1.0b3
#
DISCID=ad12740e
DTITLE=Various Artist - Blues Paradise vol.23
DYEAR=2002
DGENRE=Blues
TTITLE0=Jon Tiven Group - The End Of The Blues
TTITLE1=Lonnie Shields - Sweet Love
TTITLE2=Murali Coryell - Hold Me
TTITLE3=Jimmy Vivino And The Rekoperators - Life Is Suicide
TTITLE4=Vargas Blues Band - 2001 Blues
TTITLE5=Lucky Peterson - Why Can't We Live Together
TTITLE6=Mick Taylor - Slow Blues
TTITLE7=Luther Allison - Pain In The Streets
TTITLE8=Blues Underground - The Sky Is Crying
TTITLE9=S.F. Blues Guitar: T.Castro, K.Russell And J.Nitro - I Tried
TTITLE10=Michael Locke - All Your Love I Miss Loving
TTITLE11=Beto Lovato - El Color De Sangle
TTITLE12=Ronnie D. - I'm Your Main Man
TTITLE13=Van Wilks - Tempted
EXTD=YEAR: 2003
EXTT0=
EXTT1=
EXTT2=
EXTT3=
EXTT4=
EXTT5=
EXTT6=
EXTT7=
EXTT8=
EXTT9=
EXTT10=
EXTT11=
EXTT12=
EXTT13=
PLAYORDER=
